# xmcd
#
# Track frame offsets: 
#        150
#        16420
#        38973
#        53177
#        67339
#        86950
#        104447
#        124918
#
# Disc length: 1820 seconds
#
# Revision: 0
# Processed by: cddbd v1.5.2PL0 Copyright (c) Steve Scherf et al.
# Submitted via: ExactAudioCopyFreeDBPlugin 1.0
#
DISCID=75071a08
DTITLE=HER - Revolution
DYEAR=2015
DGENRE=City Country
TTITLE0=Tonight
TTITLE1=Revolution
TTITLE2=Crush
TTITLE3=You
TTITLE4=Damn
TTITLE5=No Regrets
TTITLE6=Heaven Crashes Down
TTITLE7=Mean Man
EXTD=
EXTT0=
EXTT1=
EXTT2=
EXTT3=
EXTT4=
EXTT5=
EXTT6=
EXTT7=
PLAYORDER=
